<svg xmlns="http://www.w3.org/2000/svg" xmlns:xlink="http://www.w3.org/1999/xlink" width="1920" zoomAndPan="magnify" viewBox="0 0 1440 809.999993" height="1080" preserveAspectRatio="xMidYMid meet" version="1.0"><defs><g/></defs><g fill="#999ae8" fill-opacity="1"><g transform="translate(172.165457, 576.84362)"><g><path d="M 52.390625 -217.890625 C 58.398438 -215.617188 69.15625 -211.15625 84.65625 -204.5 C 96.132812 -199.394531 106.644531 -193.796875 116.1875 -187.703125 C 125.726562 -181.609375 133.84375 -175.1875 140.53125 -168.4375 C 147.226562 -161.695312 152.03125 -154.785156 154.9375 -147.703125 C 157.84375 -140.617188 158.394531 -133.5 156.59375 -126.34375 C 154.800781 -119.195312 150.140625 -112.21875 142.609375 -105.40625 C 139.921875 -102.894531 136.046875 -101.46875 130.984375 -101.125 C 125.921875 -100.78125 120.160156 -101.257812 113.703125 -102.5625 C 107.253906 -103.863281 100.519531 -105.738281 93.5 -108.1875 C 86.488281 -110.644531 79.539062 -113.429688 72.65625 -116.546875 C 65.769531 -119.660156 59.398438 -122.882812 53.546875 -126.21875 C 47.691406 -129.550781 42.765625 -132.710938 38.765625 -135.703125 C 35.742188 -136.117188 33.546875 -135.453125 32.171875 -133.703125 C 30.804688 -131.953125 31.316406 -129.914062 33.703125 -127.59375 C 42.546875 -119.070312 50.015625 -111.050781 56.109375 -103.53125 C 62.203125 -96.019531 66.34375 -88.726562 68.53125 -81.65625 C 70.71875 -74.59375 70.394531 -67.6875 67.5625 -60.9375 C 64.738281 -54.195312 58.789062 -47.390625 49.71875 -40.515625 C 42.15625 -34.785156 34.609375 -31.601562 27.078125 -30.96875 C 19.546875 -30.34375 11.984375 -31.796875 4.390625 -35.328125 C -3.191406 -38.867188 -10.800781 -44.046875 -18.4375 -50.859375 C -26.070312 -57.679688 -33.742188 -65.664062 -41.453125 -74.8125 C -49.171875 -83.957031 -56.957031 -93.8125 -64.8125 -104.375 C -75.488281 -118.488281 -85.421875 -132.289062 -94.609375 -145.78125 C -103.804688 -159.269531 -111.644531 -172.28125 -118.125 -184.8125 C -124.613281 -197.351562 -129.226562 -209.046875 -131.96875 -219.890625 C -134.707031 -230.742188 -134.992188 -240.601562 -132.828125 -249.46875 C -130.671875 -258.332031 -125.460938 -265.894531 -117.203125 -272.15625 C -109.242188 -278.1875 -102.15625 -281.648438 -95.9375 -282.546875 C -89.71875 -283.453125 -84.054688 -282.425781 -78.953125 -279.46875 C -73.859375 -276.507812 -69.050781 -272.097656 -64.53125 -266.234375 C -60.019531 -260.378906 -55.554688 -253.648438 -51.140625 -246.046875 C -46.722656 -238.441406 -41.972656 -230.546875 -36.890625 -222.359375 C -35.429688 -220.441406 -33.945312 -219.535156 -32.4375 -219.640625 C -30.9375 -219.753906 -29.859375 -220.53125 -29.203125 -221.96875 C -28.554688 -223.414062 -28.769531 -225.160156 -29.84375 -227.203125 C -33.46875 -232.390625 -36.847656 -238.519531 -39.984375 -245.59375 C -43.117188 -252.664062 -45.804688 -260.144531 -48.046875 -268.03125 C -50.285156 -275.914062 -51.894531 -283.691406 -52.875 -291.359375 C -53.851562 -299.035156 -53.921875 -306.085938 -53.078125 -312.515625 C -52.234375 -318.941406 -50.316406 -324.15625 -47.328125 -328.15625 C -36.367188 -337.570312 -26.078125 -343.625 -16.453125 -346.3125 C -6.835938 -349 1.972656 -348.820312 9.984375 -345.78125 C 18.003906 -342.738281 25.050781 -337.363281 31.125 -329.65625 C 37.195312 -321.957031 42.109375 -312.390625 45.859375 -300.953125 C 49.609375 -289.523438 52.0625 -276.753906 53.21875 -262.640625 C 54.382812 -248.535156 54.109375 -233.617188 52.390625 -217.890625 Z M 52.390625 -217.890625 "/></g></g></g><g fill="#999ae8" fill-opacity="1"><g transform="translate(316.345128, 462.424463)"><g><path d="M 113.734375 -216.96875 C 120.804688 -200.738281 125.671875 -184.269531 128.328125 -167.5625 C 130.992188 -150.863281 131.242188 -134.5625 129.078125 -118.65625 C 126.921875 -102.757812 122.117188 -87.84375 114.671875 -73.90625 C 107.234375 -59.96875 97.003906 -47.675781 83.984375 -37.03125 C 78.578125 -34.257812 72.726562 -31.78125 66.4375 -29.59375 C 60.15625 -27.40625 53.835938 -25.6875 47.484375 -24.4375 C 41.128906 -23.1875 35.066406 -22.609375 29.296875 -22.703125 C 23.523438 -22.804688 18.503906 -23.71875 14.234375 -25.4375 C 9.972656 -27.164062 6.8125 -29.925781 4.75 -33.71875 C -0.0820312 -43.207031 -5.546875 -54 -11.640625 -66.09375 C -17.742188 -78.195312 -24.050781 -91 -30.5625 -104.5 C -37.082031 -118.007812 -43.550781 -131.566406 -49.96875 -145.171875 C -56.382812 -158.785156 -62.378906 -171.828125 -67.953125 -184.296875 C -73.523438 -196.765625 -78.40625 -208.050781 -82.59375 -218.15625 C -86.789062 -228.257812 -89.882812 -236.53125 -91.875 -242.96875 C -91.75 -248.382812 -89.570312 -253.601562 -85.34375 -258.625 C -81.125 -263.644531 -75.585938 -268.335938 -68.734375 -272.703125 C -61.890625 -277.078125 -54.351562 -280.984375 -46.125 -284.421875 C -37.90625 -287.867188 -29.703125 -290.722656 -21.515625 -292.984375 C -13.328125 -295.253906 -5.894531 -296.804688 0.78125 -297.640625 C 12.039062 -297.441406 23.351562 -295.132812 34.71875 -290.71875 C 46.09375 -286.300781 56.910156 -280.394531 67.171875 -273 C 77.429688 -265.601562 86.578125 -257.109375 94.609375 -247.515625 C 102.648438 -237.921875 109.023438 -227.738281 113.734375 -216.96875 Z M 0.296875 -206.1875 C 9.453125 -191.84375 22.289062 -166.679688 38.8125 -130.703125 C 42.457031 -136.566406 44.773438 -143.023438 45.765625 -150.078125 C 46.753906 -157.140625 46.695312 -164.222656 45.59375 -171.328125 C 44.5 -178.429688 42.550781 -184.957031 39.75 -190.90625 C 36.957031 -196.863281 33.503906 -201.707031 29.390625 -205.4375 C 25.273438 -209.164062 20.738281 -211.253906 15.78125 -211.703125 C 10.820312 -212.160156 5.660156 -210.320312 0.296875 -206.1875 Z M 0.296875 -206.1875 "/></g></g></g><g fill="#999ae8" fill-opacity="1"><g transform="translate(453.067485, 395.105573)"><g><path d="M 150.359375 -146.625 C 161.679688 -138.15625 171.367188 -129.289062 179.421875 -120.03125 C 187.484375 -110.769531 193.523438 -101.625 197.546875 -92.59375 C 201.578125 -83.5625 203.207031 -74.992188 202.4375 -66.890625 C 201.675781 -58.785156 198.125 -51.515625 191.78125 -45.078125 C 185.4375 -38.648438 175.859375 -33.554688 163.046875 -29.796875 C 143.390625 -24.148438 119.210938 -40.742188 90.515625 -79.578125 C 94.015625 -67.492188 95.601562 -56.695312 95.28125 -47.1875 C 94.96875 -37.6875 92.035156 -29.828125 86.484375 -23.609375 C 80.941406 -17.390625 72.015625 -13.15625 59.703125 -10.90625 C 47.515625 -8.6875 37.550781 -8.863281 29.8125 -11.4375 C 22.082031 -14.007812 16.007812 -18.9375 11.59375 -26.21875 C 7.175781 -33.507812 3.882812 -43.0625 1.71875 -54.875 C 1.300781 -56.46875 0.632812 -59.78125 -0.28125 -64.8125 C -1.207031 -69.851562 -2.335938 -76.039062 -3.671875 -83.375 C -5.015625 -90.71875 -6.390625 -98.597656 -7.796875 -107.015625 C -9.203125 -115.429688 -10.535156 -123.769531 -11.796875 -132.03125 C -15.316406 -155.550781 -18.007812 -176.296875 -19.875 -194.265625 C -21.75 -212.242188 -22.804688 -227.503906 -23.046875 -240.046875 C -23.078125 -247.890625 -20.9375 -255.15625 -16.625 -261.84375 C -12.320312 -268.539062 -6.382812 -274.539062 1.1875 -279.84375 C 8.757812 -285.15625 17.351562 -289.65625 26.96875 -293.34375 C 36.582031 -297.03125 46.625 -299.765625 57.09375 -301.546875 C 79.28125 -305.335938 98.835938 -304.539062 115.765625 -299.15625 C 132.691406 -293.769531 146.304688 -284.144531 156.609375 -270.28125 C 166.910156 -256.425781 173.203125 -238.648438 175.484375 -216.953125 C 176.710938 -205.359375 175.285156 -193.847656 171.203125 -182.421875 C 167.117188 -171.003906 160.171875 -159.070312 150.359375 -146.625 Z M 58.921875 -214.546875 C 58.503906 -213.960938 58.359375 -212.972656 58.484375 -211.578125 C 58.617188 -210.191406 59.046875 -207.703125 59.765625 -204.109375 C 60.484375 -200.515625 61.519531 -195.175781 62.875 -188.09375 C 64.238281 -181.007812 66 -171.5625 68.15625 -159.75 C 74.6875 -163.382812 79.84375 -167.863281 83.625 -173.1875 C 87.40625 -178.507812 90 -184.023438 91.40625 -189.734375 C 92.8125 -195.453125 93.0625 -200.765625 92.15625 -205.671875 C 91.257812 -210.585938 89.34375 -214.546875 86.40625 -217.546875 C 83.476562 -220.554688 79.722656 -221.960938 75.140625 -221.765625 C 70.554688 -221.566406 65.148438 -219.160156 58.921875 -214.546875 Z M 58.921875 -214.546875 "/></g></g></g><g fill="#999ae8" fill-opacity="1"><g transform="translate(620.787028, 356.755839)"><g><path d="M 231.125 -130.890625 C 232.625 -114.679688 233.347656 -99.222656 233.296875 -84.515625 C 233.253906 -69.816406 232.257812 -56.390625 230.3125 -44.234375 C 228.363281 -32.085938 225.257812 -21.601562 221 -12.78125 C 216.75 -3.96875 211.164062 2.691406 204.25 7.203125 C 197.34375 11.722656 188.96875 13.628906 179.125 12.921875 C 164.375 11.847656 153.882812 7.03125 147.65625 -1.53125 C 141.425781 -10.09375 138.828125 -21.554688 139.859375 -35.921875 C 135.085938 -36.523438 129.976562 -36.894531 124.53125 -37.03125 C 119.09375 -37.164062 113.328125 -37.078125 107.234375 -36.765625 C 108.222656 -29.578125 107.976562 -22.773438 106.5 -16.359375 C 105.03125 -9.941406 102.46875 -4.269531 98.8125 0.65625 C 95.164062 5.59375 90.550781 9.378906 84.96875 12.015625 C 79.394531 14.660156 73.082031 15.726562 66.03125 15.21875 C 55.9375 14.488281 47.539062 11.722656 40.84375 6.921875 C 34.15625 2.128906 28.9375 -4.132812 25.1875 -11.875 C 21.4375 -19.625 18.875 -28.457031 17.5 -38.375 C 16.125 -48.300781 15.769531 -58.816406 16.4375 -69.921875 C 17.113281 -81.035156 18.523438 -92.28125 20.671875 -103.65625 C 22.828125 -115.039062 25.5 -126.066406 28.6875 -136.734375 C 32.882812 -151.128906 37.570312 -165.238281 42.75 -179.0625 C 47.9375 -192.882812 53.742188 -205.742188 60.171875 -217.640625 C 66.609375 -229.535156 73.820312 -239.914062 81.8125 -248.78125 C 89.8125 -257.644531 98.828125 -264.410156 108.859375 -269.078125 C 118.890625 -273.753906 130.023438 -275.648438 142.265625 -274.765625 C 156.628906 -273.722656 168.679688 -270.851562 178.421875 -266.15625 C 188.160156 -261.46875 196.128906 -255.035156 202.328125 -246.859375 C 208.523438 -238.679688 213.460938 -228.878906 217.140625 -217.453125 C 220.816406 -206.023438 223.679688 -193.070312 225.734375 -178.59375 C 227.796875 -164.125 229.59375 -148.222656 231.125 -130.890625 Z M 116.296875 -109.875 L 136.734375 -108.40625 C 138.140625 -117.425781 139.117188 -128.859375 139.671875 -142.703125 C 140.234375 -156.546875 140.300781 -172.863281 139.875 -191.65625 C 139.8125 -195.976562 139.191406 -198.78125 138.015625 -200.0625 C 136.835938 -201.34375 135.5625 -201.273438 134.1875 -199.859375 C 132.8125 -198.441406 131.6875 -195.925781 130.8125 -192.3125 C 129.664062 -187.0625 128.410156 -181.128906 127.046875 -174.515625 C 125.679688 -167.898438 124.34375 -161.1875 123.03125 -154.375 C 121.71875 -147.5625 120.523438 -141.117188 119.453125 -135.046875 C 118.378906 -128.972656 117.550781 -123.703125 116.96875 -119.234375 C 116.394531 -114.773438 116.171875 -111.65625 116.296875 -109.875 Z M 116.296875 -109.875 "/></g></g></g><g fill="#999ae8" fill-opacity="1"><g transform="translate(804.750995, 359.03655)"><g><path d="M 266.71875 54.125 C 263.789062 61.9375 259.566406 68.25 254.046875 73.0625 C 248.523438 77.882812 242.375 81.21875 235.59375 83.0625 C 228.820312 84.90625 222.128906 85.191406 215.515625 83.921875 C 208.910156 82.648438 203 79.785156 197.78125 75.328125 C 192.570312 70.878906 188.804688 64.910156 186.484375 57.421875 C 184.085938 49.785156 183.390625 42.640625 184.390625 35.984375 C 185.398438 29.335938 187.441406 22.910156 190.515625 16.703125 C 193.585938 10.503906 197 4.296875 200.75 -1.921875 C 204.5 -8.148438 207.972656 -14.710938 211.171875 -21.609375 C 214.367188 -28.515625 216.519531 -35.945312 217.625 -43.90625 C 210.5625 -34.800781 203.8125 -26.359375 197.375 -18.578125 C 190.945312 -10.804688 184.835938 -4.160156 179.046875 1.359375 C 173.265625 6.878906 167.707031 10.800781 162.375 13.125 C 157.050781 15.457031 151.90625 15.691406 146.9375 13.828125 C 142.675781 12.222656 139.410156 9.140625 137.140625 4.578125 C 134.867188 0.015625 133.289062 -5.5 132.40625 -11.96875 C 131.53125 -18.445312 131.234375 -25.484375 131.515625 -33.078125 C 131.804688 -40.671875 132.398438 -48.28125 133.296875 -55.90625 C 134.203125 -63.53125 135.242188 -70.703125 136.421875 -77.421875 C 130.503906 -67.765625 125.773438 -58.128906 122.234375 -48.515625 C 118.691406 -38.910156 115.722656 -29.757812 113.328125 -21.0625 C 110.941406 -12.375 108.515625 -4.644531 106.046875 2.125 C 103.578125 8.894531 100.5 14.394531 96.8125 18.625 C 93.132812 22.851562 88.265625 25.3125 82.203125 26 C 76.140625 26.695312 68.191406 25.203125 58.359375 21.515625 C 49.253906 18.097656 42.546875 12.941406 38.234375 6.046875 C 33.929688 -0.835938 31.59375 -9.175781 31.21875 -18.96875 C 30.84375 -28.769531 32.035156 -39.769531 34.796875 -51.96875 C 37.554688 -64.164062 41.460938 -77.28125 46.515625 -91.3125 C 51.578125 -105.34375 57.488281 -120.101562 64.25 -135.59375 C 71.007812 -151.09375 78.054688 -166.984375 85.390625 -183.265625 C 92.421875 -198.734375 102.082031 -210.4375 114.375 -218.375 C 125.125 -225.425781 135.613281 -229.359375 145.84375 -230.171875 C 156.070312 -230.984375 165.28125 -228.632812 173.46875 -223.125 C 181.664062 -217.625 188.085938 -208.804688 192.734375 -196.671875 C 199.285156 -179.628906 201.535156 -156.5 199.484375 -127.28125 C 205.234375 -138.632812 211.664062 -148.847656 218.78125 -157.921875 C 225.90625 -166.992188 233.640625 -174.453125 241.984375 -180.296875 C 250.328125 -186.148438 259.175781 -189.851562 268.53125 -191.40625 C 277.882812 -192.957031 287.648438 -191.820312 297.828125 -188 C 307.179688 -184.488281 314.207031 -179.457031 318.90625 -172.90625 C 323.601562 -166.351562 326.457031 -158.664062 327.46875 -149.84375 C 328.488281 -141.03125 328.039062 -131.375 326.125 -120.875 C 324.207031 -110.382812 321.375 -99.429688 317.625 -88.015625 C 315.4375 -81.816406 312.691406 -74.132812 309.390625 -64.96875 C 306.085938 -55.8125 302.554688 -45.863281 298.796875 -35.125 C 295.035156 -24.382812 291.203125 -13.53125 287.296875 -2.5625 C 283.390625 8.394531 279.660156 18.773438 276.109375 28.578125 C 272.554688 38.378906 269.425781 46.894531 266.71875 54.125 Z M 266.71875 54.125 "/></g></g></g><g fill="#999ae8" fill-opacity="1"><g transform="translate(1016.398722, 433.024258)"><g><path d="M 265.15625 15.640625 C 257.613281 30.054688 249.828125 43.421875 241.796875 55.734375 C 233.773438 68.054688 225.644531 78.789062 217.40625 87.9375 C 209.164062 97.082031 200.863281 104.203125 192.5 109.296875 C 184.144531 114.390625 175.835938 116.953125 167.578125 116.984375 C 159.328125 117.015625 151.265625 114.0625 143.390625 108.125 C 131.578125 99.21875 125.382812 89.476562 124.8125 78.90625 C 124.238281 68.332031 128.285156 57.296875 136.953125 45.796875 C 133.265625 42.691406 129.175781 39.601562 124.6875 36.53125 C 120.195312 33.46875 115.300781 30.410156 110 27.359375 C 106.9375 33.929688 103.039062 39.507812 98.3125 44.09375 C 93.59375 48.6875 88.359375 52.0625 82.609375 54.21875 C 76.867188 56.382812 70.9375 57.0625 64.8125 56.25 C 58.695312 55.4375 52.816406 52.898438 47.171875 48.640625 C 39.097656 42.546875 33.550781 35.671875 30.53125 28.015625 C 27.519531 20.359375 26.539062 12.257812 27.59375 3.71875 C 28.65625 -4.820312 31.300781 -13.628906 35.53125 -22.703125 C 39.769531 -31.785156 45.1875 -40.8125 51.78125 -49.78125 C 58.382812 -58.75 65.675781 -67.421875 73.65625 -75.796875 C 81.644531 -84.179688 89.875 -91.988281 98.34375 -99.21875 C 109.695312 -109.03125 121.300781 -118.332031 133.15625 -127.125 C 145.007812 -135.925781 156.867188 -143.570312 168.734375 -150.0625 C 180.597656 -156.5625 192.289062 -161.359375 203.8125 -164.453125 C 215.34375 -167.554688 226.585938 -168.34375 237.546875 -166.8125 C 248.503906 -165.28125 258.878906 -160.820312 268.671875 -153.4375 C 280.171875 -144.757812 288.734375 -135.804688 294.359375 -126.578125 C 299.992188 -117.347656 303.191406 -107.617188 303.953125 -97.390625 C 304.722656 -87.160156 303.546875 -76.25 300.421875 -64.65625 C 297.304688 -53.070312 292.679688 -40.644531 286.546875 -27.375 C 280.410156 -14.101562 273.28125 0.234375 265.15625 15.640625 Z M 157.328125 -29.109375 L 173.6875 -16.765625 C 179.757812 -23.578125 186.789062 -32.644531 194.78125 -43.96875 C 202.769531 -55.289062 211.691406 -68.953125 221.546875 -84.953125 C 223.828125 -88.617188 224.820312 -91.304688 224.53125 -93.015625 C 224.25 -94.734375 223.144531 -95.367188 221.21875 -94.921875 C 219.300781 -94.472656 216.988281 -92.972656 214.28125 -90.421875 C 210.476562 -86.640625 206.203125 -82.34375 201.453125 -77.53125 C 196.710938 -72.71875 191.941406 -67.804688 187.140625 -62.796875 C 182.335938 -57.796875 177.832031 -53.035156 173.625 -48.515625 C 169.425781 -43.992188 165.875 -40.015625 162.96875 -36.578125 C 160.0625 -33.148438 158.179688 -30.660156 157.328125 -29.109375 Z M 157.328125 -29.109375 "/></g></g></g><g fill="#000000" fill-opacity="1"><g transform="translate(282.603947, 698.773433)"><g><path d="M 202.15625 -82.953125 C 202.195312 -64.984375 198.539062 -49.832031 191.1875 -37.5 C 183.832031 -25.164062 173.515625 -15.875 160.234375 -9.625 C 146.960938 -3.375 131.34375 -0.234375 113.375 -0.203125 C 100.164062 -0.179688 88.128906 -2.46875 77.265625 -7.0625 C 66.410156 -11.664062 56.867188 -18.128906 48.640625 -26.453125 C 40.410156 -34.785156 33.53125 -44.523438 28 -55.671875 C 22.46875 -66.828125 18.273438 -78.945312 15.421875 -92.03125 C 12.578125 -105.125 11.207031 -118.726562 11.3125 -132.84375 C 11.28125 -150.289062 12.304688 -167.003906 14.390625 -182.984375 C 16.484375 -198.972656 19.859375 -213.644531 24.515625 -227 C 29.171875 -240.363281 35.34375 -251.988281 43.03125 -261.875 C 50.71875 -271.769531 60.070312 -279.453125 71.09375 -284.921875 C 82.125 -290.398438 95.082031 -293.15625 109.96875 -293.1875 C 120.875 -293.207031 131.332031 -291.269531 141.34375 -287.375 C 151.363281 -283.476562 160.359375 -278.070312 168.328125 -271.15625 C 176.296875 -264.238281 182.660156 -256.289062 187.421875 -247.3125 C 192.191406 -238.34375 194.71875 -228.789062 195 -218.65625 C 195.132812 -211.46875 193.828125 -204.5 191.078125 -197.75 C 188.328125 -191.007812 184.421875 -185.359375 179.359375 -180.796875 C 174.304688 -176.234375 168.378906 -173.5625 161.578125 -172.78125 C 156.441406 -172.25 151.175781 -172.648438 145.78125 -173.984375 C 140.394531 -175.328125 135.359375 -177.4375 130.671875 -180.3125 C 125.984375 -183.195312 122.191406 -186.6875 119.296875 -190.78125 C 116.398438 -194.882812 114.945312 -199.441406 114.9375 -204.453125 C 114.414062 -207.910156 113.671875 -210.117188 112.703125 -211.078125 C 111.742188 -212.046875 110.71875 -212.175781 109.625 -211.46875 C 108.539062 -210.757812 107.613281 -209.632812 106.84375 -208.09375 C 106.070312 -206.550781 105.6875 -204.945312 105.6875 -203.28125 L 102.390625 -124.34375 C 102.410156 -110.613281 103.414062 -101.054688 105.40625 -95.671875 C 107.40625 -90.285156 111.160156 -88.753906 116.671875 -91.078125 C 122.191406 -93.398438 130.203125 -99.25 140.703125 -108.625 C 152.503906 -119.039062 163.019531 -124.960938 172.25 -126.390625 C 181.488281 -127.828125 188.773438 -124.894531 194.109375 -117.59375 C 199.453125 -110.289062 202.132812 -98.742188 202.15625 -82.953125 Z M 202.15625 -82.953125 "/></g></g></g><g fill="#000000" fill-opacity="1"><g transform="translate(463.669005, 698.444205)"><g><path d="M 221.9375 -221.390625 C 223 -198.296875 223.644531 -176.222656 223.875 -155.171875 C 224.113281 -134.128906 223.570312 -114.6875 222.25 -96.84375 C 220.9375 -79.007812 218.460938 -63.285156 214.828125 -49.671875 C 211.203125 -36.054688 206.09375 -25.039062 199.5 -16.625 C 192.90625 -8.207031 184.410156 -2.898438 174.015625 -0.703125 C 162.847656 1.753906 153.925781 0.90625 147.25 -3.25 C 140.570312 -7.40625 136.003906 -14.003906 133.546875 -23.046875 C 131.097656 -32.085938 130.503906 -42.707031 131.765625 -54.90625 C 132.398438 -60.9375 132.804688 -66.164062 132.984375 -70.59375 C 133.171875 -75.03125 132.457031 -78.492188 130.84375 -80.984375 C 129.238281 -83.484375 126 -84.726562 121.125 -84.71875 C 116.757812 -84.707031 112.75 -83.609375 109.09375 -81.421875 C 105.4375 -79.242188 102.582031 -76.289062 100.53125 -72.5625 C 98.488281 -68.832031 97.539062 -64.59375 97.6875 -59.84375 C 100.53125 -48.6875 102.3125 -39.191406 103.03125 -31.359375 C 103.75 -23.535156 102.988281 -17.179688 100.75 -12.296875 C 98.507812 -7.421875 94.4375 -3.820312 88.53125 -1.5 C 82.632812 0.820312 74.363281 1.992188 63.71875 2.015625 C 55.375 2.023438 48.441406 0.175781 42.921875 -3.53125 C 37.398438 -7.25 32.929688 -12.441406 29.515625 -19.109375 C 26.109375 -25.773438 23.175781 -33.40625 20.71875 -42 C 17.488281 -53.164062 15.21875 -65.515625 13.90625 -79.046875 C 12.59375 -92.578125 11.828125 -107.171875 11.609375 -122.828125 C 11.390625 -138.484375 11.265625 -155.164062 11.234375 -172.875 C 11.203125 -189.050781 11.65625 -203.6875 12.59375 -216.78125 C 13.539062 -229.875 15.703125 -241.070312 19.078125 -250.375 C 22.460938 -259.6875 27.804688 -266.816406 35.109375 -271.765625 C 42.421875 -276.722656 52.492188 -279.21875 65.328125 -279.25 C 74.691406 -279.644531 82.101562 -278.46875 87.5625 -275.71875 C 93.019531 -272.96875 97.003906 -269.1875 99.515625 -264.375 C 102.023438 -259.570312 103.507812 -254.085938 103.96875 -247.921875 C 104.4375 -241.765625 104.359375 -235.382812 103.734375 -228.78125 C 103.109375 -222.175781 102.347656 -215.757812 101.453125 -209.53125 C 100.566406 -203.300781 100.03125 -197.648438 99.84375 -192.578125 C 99.664062 -187.515625 100.285156 -183.441406 101.703125 -180.359375 C 103.117188 -177.285156 105.785156 -175.65625 109.703125 -175.46875 C 113.617188 -175.28125 119.289062 -176.929688 126.71875 -180.421875 C 129.925781 -181.953125 131.71875 -185.539062 132.09375 -191.1875 C 132.46875 -196.84375 132.257812 -204.414062 131.46875 -213.90625 C 130.6875 -223.40625 130.15625 -234.570312 129.875 -247.40625 C 130.75 -258.820312 135.347656 -267.550781 143.671875 -273.59375 C 152.003906 -279.644531 162.523438 -282.941406 175.234375 -283.484375 C 186.910156 -283.890625 196.054688 -281.5 202.671875 -276.3125 C 209.296875 -271.132812 214.0625 -263.832031 216.96875 -254.40625 C 219.875 -244.976562 221.53125 -233.972656 221.9375 -221.390625 Z M 221.9375 -221.390625 "/></g></g></g><g fill="#000000" fill-opacity="1"><g transform="translate(666.679212, 698.075074)"><g><path d="M 224.1875 -149.78125 C 226.90625 -133.5 228.789062 -117.910156 229.84375 -103.015625 C 230.90625 -88.128906 230.898438 -74.460938 229.828125 -62.015625 C 228.765625 -49.566406 226.410156 -38.71875 222.765625 -29.46875 C 219.117188 -20.21875 213.960938 -13.050781 207.296875 -7.96875 C 200.640625 -2.894531 192.304688 -0.347656 182.296875 -0.328125 C 167.285156 -0.304688 156.304688 -4.394531 149.359375 -12.59375 C 142.410156 -20.789062 138.925781 -32.203125 138.90625 -46.828125 C 134.03125 -47.078125 128.832031 -47.066406 123.3125 -46.796875 C 117.789062 -46.535156 111.953125 -46.015625 105.796875 -45.234375 C 107.347656 -38.054688 107.613281 -31.160156 106.59375 -24.546875 C 105.582031 -17.929688 103.410156 -11.988281 100.078125 -6.71875 C 96.753906 -1.457031 92.367188 2.71875 86.921875 5.8125 C 81.472656 8.90625 75.15625 10.457031 67.96875 10.46875 C 57.695312 10.488281 49 8.320312 41.875 3.96875 C 34.75 -0.382812 28.992188 -6.34375 24.609375 -13.90625 C 20.234375 -21.46875 16.976562 -30.21875 14.84375 -40.15625 C 12.71875 -50.101562 11.578125 -60.722656 11.421875 -72.015625 C 11.273438 -83.304688 11.863281 -94.789062 13.1875 -106.46875 C 14.519531 -118.15625 16.394531 -129.519531 18.8125 -140.5625 C 21.988281 -155.457031 25.679688 -170.09375 29.890625 -184.46875 C 34.097656 -198.84375 39.015625 -212.289062 44.640625 -224.8125 C 50.265625 -237.34375 56.785156 -248.394531 64.203125 -257.96875 C 71.628906 -267.539062 80.242188 -275.0625 90.046875 -280.53125 C 99.859375 -286.007812 110.988281 -288.757812 123.4375 -288.78125 C 138.070312 -288.8125 150.492188 -286.816406 160.703125 -282.796875 C 170.910156 -278.773438 179.457031 -272.851562 186.34375 -265.03125 C 193.226562 -257.207031 198.957031 -247.648438 203.53125 -236.359375 C 208.101562 -225.078125 211.972656 -212.191406 215.140625 -197.703125 C 218.316406 -183.210938 221.332031 -167.238281 224.1875 -149.78125 Z M 109.5 -119.9375 L 130.296875 -119.96875 C 131.046875 -129.207031 131.1875 -140.851562 130.71875 -154.90625 C 130.25 -168.957031 129.09375 -185.484375 127.25 -204.484375 C 126.863281 -208.835938 126.023438 -211.617188 124.734375 -212.828125 C 123.453125 -214.046875 122.171875 -213.882812 120.890625 -212.34375 C 119.609375 -210.8125 118.648438 -208.1875 118.015625 -204.46875 C 117.253906 -199.070312 116.429688 -192.96875 115.546875 -186.15625 C 114.660156 -179.351562 113.804688 -172.453125 112.984375 -165.453125 C 112.160156 -158.460938 111.429688 -151.851562 110.796875 -145.625 C 110.171875 -139.40625 109.734375 -134.019531 109.484375 -129.46875 C 109.242188 -124.914062 109.25 -121.738281 109.5 -119.9375 Z M 109.5 -119.9375 "/></g></g></g><g fill="#000000" fill-opacity="1"><g transform="translate(876.234479, 697.694042)"><g><path d="M 219.609375 -228.90625 C 219.492188 -220.050781 218.222656 -212.796875 215.796875 -207.140625 C 213.367188 -201.492188 209.625 -197.15625 204.5625 -194.125 C 199.5 -191.101562 192.859375 -189.003906 184.640625 -187.828125 C 176.429688 -186.660156 166.488281 -186.066406 154.8125 -186.046875 C 155.59375 -181.421875 156.664062 -175.195312 158.03125 -167.375 C 159.394531 -159.550781 160.789062 -150.765625 162.21875 -141.015625 C 163.644531 -131.265625 164.878906 -121.03125 165.921875 -110.3125 C 166.972656 -99.59375 167.539062 -88.941406 167.625 -78.359375 C 167.707031 -67.773438 167.082031 -57.734375 165.75 -48.234375 C 164.414062 -38.734375 162.148438 -30.320312 158.953125 -23 C 155.765625 -15.6875 151.378906 -9.96875 145.796875 -5.84375 C 140.222656 -1.726562 133.203125 0.207031 124.734375 -0.03125 C 112.035156 -0.394531 101.800781 -2.398438 94.03125 -6.046875 C 86.257812 -9.691406 80.34375 -14.972656 76.28125 -21.890625 C 72.226562 -28.804688 69.582031 -37.492188 68.34375 -47.953125 C 67.113281 -58.421875 66.773438 -70.710938 67.328125 -84.828125 C 67.878906 -98.941406 68.875 -114.945312 70.3125 -132.84375 C 71.75 -150.75 73.03125 -170.617188 74.15625 -192.453125 C 53.238281 -192.148438 37.507812 -196.0625 26.96875 -204.1875 C 16.425781 -212.320312 11.140625 -224.148438 11.109375 -239.671875 C 11.097656 -246.859375 13.046875 -253.1875 16.953125 -258.65625 C 20.859375 -264.125 26.175781 -268.785156 32.90625 -272.640625 C 39.632812 -276.503906 47.265625 -279.660156 55.796875 -282.109375 C 64.328125 -284.566406 73.207031 -286.378906 82.4375 -287.546875 C 91.675781 -288.722656 100.722656 -289.320312 109.578125 -289.34375 C 124.585938 -289.363281 138.703125 -288.296875 151.921875 -286.140625 C 165.148438 -283.984375 176.835938 -280.539062 186.984375 -275.8125 C 197.140625 -271.082031 205.113281 -264.835938 210.90625 -257.078125 C 216.695312 -249.328125 219.597656 -239.9375 219.609375 -228.90625 Z M 219.609375 -228.90625 "/></g></g></g><g fill="#000000" fill-opacity="1"><g transform="translate(197.615472, 565.99211)"><g><path d="M 50.109375 -208.34375 C 55.847656 -206.164062 66.132812 -201.898438 80.96875 -195.546875 C 91.9375 -190.671875 101.976562 -185.3125 111.09375 -179.46875 C 120.207031 -173.632812 127.960938 -167.492188 134.359375 -161.046875 C 140.765625 -154.597656 145.359375 -147.988281 148.140625 -141.21875 C 150.921875 -134.445312 151.453125 -127.644531 149.734375 -120.8125 C 148.015625 -113.976562 143.554688 -107.300781 136.359375 -100.78125 C 133.785156 -98.382812 130.082031 -97.019531 125.25 -96.6875 C 120.414062 -96.351562 114.910156 -96.804688 108.734375 -98.046875 C 102.554688 -99.296875 96.113281 -101.09375 89.40625 -103.4375 C 82.695312 -105.789062 76.050781 -108.457031 69.46875 -111.4375 C 62.894531 -114.414062 56.804688 -117.5 51.203125 -120.6875 C 45.609375 -123.882812 40.890625 -126.90625 37.046875 -129.75 C 34.179688 -130.144531 32.09375 -129.503906 30.78125 -127.828125 C 29.46875 -126.160156 29.957031 -124.222656 32.25 -122.015625 C 40.6875 -113.859375 47.820312 -106.179688 53.65625 -98.984375 C 59.488281 -91.796875 63.445312 -84.820312 65.53125 -78.0625 C 67.625 -71.300781 67.316406 -64.695312 64.609375 -58.25 C 61.898438 -51.8125 56.210938 -45.3125 47.546875 -38.75 C 40.316406 -33.269531 33.097656 -30.226562 25.890625 -29.625 C 18.691406 -29.019531 11.460938 -30.40625 4.203125 -33.78125 C -3.054688 -37.164062 -10.332031 -42.117188 -17.625 -48.640625 C -24.925781 -55.171875 -32.265625 -62.804688 -39.640625 -71.546875 C -47.015625 -80.296875 -54.445312 -89.707031 -61.9375 -99.78125 C -72.164062 -113.28125 -81.671875 -126.476562 -90.453125 -139.375 C -99.242188 -152.28125 -106.738281 -164.726562 -112.9375 -176.71875 C -119.144531 -188.71875 -123.554688 -199.898438 -126.171875 -210.265625 C -128.796875 -220.640625 -129.070312 -230.0625 -127 -238.53125 C -124.925781 -247 -119.941406 -254.226562 -112.046875 -260.21875 C -104.429688 -265.976562 -97.648438 -269.289062 -91.703125 -270.15625 C -85.753906 -271.019531 -80.34375 -270.035156 -75.46875 -267.203125 C -70.59375 -264.378906 -65.992188 -260.164062 -61.671875 -254.5625 C -57.359375 -248.957031 -53.09375 -242.519531 -48.875 -235.25 C -44.664062 -227.988281 -40.125 -220.441406 -35.25 -212.609375 C -33.851562 -210.773438 -32.4375 -209.910156 -31 -210.015625 C -29.570312 -210.117188 -28.546875 -210.859375 -27.921875 -212.234375 C -27.304688 -213.617188 -27.507812 -215.289062 -28.53125 -217.25 C -31.988281 -222.207031 -35.210938 -228.066406 -38.203125 -234.828125 C -41.203125 -241.585938 -43.773438 -248.738281 -45.921875 -256.28125 C -48.066406 -263.820312 -49.601562 -271.257812 -50.53125 -278.59375 C -51.457031 -285.925781 -51.519531 -292.664062 -50.71875 -298.8125 C -49.914062 -304.957031 -48.085938 -309.945312 -45.234375 -313.78125 C -34.765625 -322.78125 -24.925781 -328.5625 -15.71875 -331.125 C -6.519531 -333.695312 1.910156 -333.523438 9.578125 -330.609375 C 17.242188 -327.703125 23.976562 -322.566406 29.78125 -315.203125 C 35.582031 -307.847656 40.269531 -298.703125 43.84375 -287.765625 C 47.425781 -276.828125 49.773438 -264.613281 50.890625 -251.125 C 52.003906 -237.644531 51.742188 -223.382812 50.109375 -208.34375 Z M 50.109375 -208.34375 "/></g></g></g><g fill="#000000" fill-opacity="1"><g transform="translate(335.632003, 456.488459)"><g><path d="M 108.765625 -207.453125 C 115.523438 -191.941406 120.175781 -176.195312 122.71875 -160.21875 C 125.257812 -144.25 125.492188 -128.65625 123.421875 -113.4375 C 121.347656 -98.226562 116.753906 -83.960938 109.640625 -70.640625 C 102.535156 -57.328125 92.757812 -45.582031 80.3125 -35.40625 C 75.132812 -32.75 69.539062 -30.375 63.53125 -28.28125 C 57.519531 -26.1875 51.476562 -24.539062 45.40625 -23.34375 C 39.332031 -22.15625 33.535156 -21.613281 28.015625 -21.71875 C 22.503906 -21.820312 17.707031 -22.695312 13.625 -24.34375 C 9.539062 -25.988281 6.507812 -28.625 4.53125 -32.25 C -0.0703125 -41.3125 -5.289062 -51.625 -11.125 -63.1875 C -16.96875 -74.757812 -23 -87.003906 -29.21875 -99.921875 C -35.445312 -112.835938 -41.628906 -125.800781 -47.765625 -138.8125 C -53.898438 -151.832031 -59.628906 -164.300781 -64.953125 -176.21875 C -70.273438 -188.132812 -74.941406 -198.921875 -78.953125 -208.578125 C -82.972656 -218.242188 -85.9375 -226.15625 -87.84375 -232.3125 C -87.726562 -237.507812 -85.648438 -242.503906 -81.609375 -247.296875 C -77.566406 -252.097656 -72.269531 -256.582031 -65.71875 -260.75 C -59.164062 -264.925781 -51.957031 -268.660156 -44.09375 -271.953125 C -36.226562 -275.253906 -28.378906 -277.984375 -20.546875 -280.140625 C -12.722656 -282.304688 -5.625 -283.789062 0.75 -284.59375 C 11.507812 -284.40625 22.328125 -282.195312 33.203125 -277.96875 C 44.085938 -273.738281 54.429688 -268.09375 64.234375 -261.03125 C 74.035156 -253.96875 82.785156 -245.847656 90.484375 -236.671875 C 98.179688 -227.503906 104.273438 -217.765625 108.765625 -207.453125 Z M 0.296875 -197.15625 C 9.054688 -183.425781 21.320312 -159.363281 37.09375 -124.96875 C 40.59375 -130.582031 42.816406 -136.757812 43.765625 -143.5 C 44.710938 -150.25 44.660156 -157.019531 43.609375 -163.8125 C 42.566406 -170.601562 40.703125 -176.84375 38.015625 -182.53125 C 35.335938 -188.21875 32.03125 -192.84375 28.09375 -196.40625 C 24.164062 -199.976562 19.832031 -201.984375 15.09375 -202.421875 C 10.351562 -202.859375 5.421875 -201.101562 0.296875 -197.15625 Z M 0.296875 -197.15625 "/></g></g></g><g fill="#000000" fill-opacity="1"><g transform="translate(466.532288, 392.074951)"><g><path d="M 143.78125 -140.1875 C 154.601562 -132.101562 163.863281 -123.628906 171.5625 -114.765625 C 179.257812 -105.898438 185.035156 -97.148438 188.890625 -88.515625 C 192.742188 -79.890625 194.304688 -71.695312 193.578125 -63.9375 C 192.847656 -56.1875 189.445312 -49.238281 183.375 -43.09375 C 177.3125 -36.945312 168.15625 -32.078125 155.90625 -28.484375 C 137.101562 -23.085938 113.988281 -38.957031 86.5625 -76.09375 C 89.894531 -64.539062 91.410156 -54.21875 91.109375 -45.125 C 90.804688 -36.039062 88.003906 -28.523438 82.703125 -22.578125 C 77.398438 -16.628906 68.859375 -12.582031 57.078125 -10.4375 C 45.421875 -8.300781 35.894531 -8.460938 28.5 -10.921875 C 21.113281 -13.378906 15.304688 -18.09375 11.078125 -25.0625 C 6.859375 -32.03125 3.71875 -41.160156 1.65625 -52.453125 C 1.257812 -53.984375 0.625 -57.15625 -0.25 -61.96875 C -1.132812 -66.789062 -2.21875 -72.707031 -3.5 -79.71875 C -4.789062 -86.738281 -6.109375 -94.269531 -7.453125 -102.3125 C -8.796875 -110.363281 -10.066406 -118.335938 -11.265625 -126.234375 C -14.640625 -148.722656 -17.21875 -168.5625 -19 -185.75 C -20.789062 -202.9375 -21.800781 -217.523438 -22.03125 -229.515625 C -22.0625 -237.015625 -20.019531 -243.96875 -15.90625 -250.375 C -11.789062 -256.78125 -6.109375 -262.519531 1.140625 -267.59375 C 8.390625 -272.664062 16.609375 -276.960938 25.796875 -280.484375 C 34.992188 -284.003906 44.59375 -286.613281 54.59375 -288.3125 C 75.800781 -291.957031 94.492188 -291.203125 110.671875 -286.046875 C 126.847656 -280.890625 139.863281 -271.679688 149.71875 -258.421875 C 159.582031 -245.171875 165.613281 -228.179688 167.8125 -207.453125 C 168.96875 -196.359375 167.59375 -185.347656 163.6875 -174.421875 C 159.789062 -163.503906 153.15625 -152.09375 143.78125 -140.1875 Z M 56.34375 -205.140625 C 55.945312 -204.585938 55.8125 -203.640625 55.9375 -202.296875 C 56.0625 -200.960938 56.46875 -198.578125 57.15625 -195.140625 C 57.84375 -191.703125 58.832031 -186.601562 60.125 -179.84375 C 61.425781 -173.082031 63.109375 -164.050781 65.171875 -152.75 C 71.421875 -156.21875 76.351562 -160.492188 79.96875 -165.578125 C 83.582031 -170.671875 86.054688 -175.945312 87.390625 -181.40625 C 88.734375 -186.875 88.972656 -191.957031 88.109375 -196.65625 C 87.253906 -201.351562 85.425781 -205.132812 82.625 -208 C 79.832031 -210.875 76.238281 -212.21875 71.84375 -212.03125 C 67.457031 -211.84375 62.289062 -209.546875 56.34375 -205.140625 Z M 56.34375 -205.140625 "/></g></g></g><g fill="#000000" fill-opacity="1"><g transform="translate(627.093485, 355.397538)"><g><path d="M 221.015625 -125.15625 C 222.441406 -109.65625 223.128906 -94.875 223.078125 -80.8125 C 223.035156 -66.75 222.078125 -53.90625 220.203125 -42.28125 C 218.335938 -30.664062 215.375 -20.644531 211.3125 -12.21875 C 207.257812 -3.789062 201.925781 2.578125 195.3125 6.890625 C 188.695312 11.203125 180.679688 13.019531 171.265625 12.34375 C 157.171875 11.332031 147.144531 6.734375 141.1875 -1.453125 C 135.226562 -9.640625 132.742188 -20.613281 133.734375 -34.375 C 129.171875 -34.9375 124.285156 -35.28125 119.078125 -35.40625 C 113.878906 -35.539062 108.359375 -35.457031 102.515625 -35.15625 C 103.484375 -28.300781 103.265625 -21.800781 101.859375 -15.65625 C 100.453125 -9.507812 98 -4.082031 94.5 0.625 C 91 5.34375 86.582031 8.960938 81.25 11.484375 C 75.925781 14.003906 69.882812 15.023438 63.125 14.546875 C 53.476562 13.847656 45.457031 11.207031 39.0625 6.625 C 32.664062 2.039062 27.671875 -3.953125 24.078125 -11.359375 C 20.492188 -18.765625 18.046875 -27.207031 16.734375 -36.6875 C 15.421875 -46.175781 15.085938 -56.234375 15.734375 -66.859375 C 16.378906 -77.484375 17.726562 -88.234375 19.78125 -99.109375 C 21.832031 -109.992188 24.378906 -120.535156 27.421875 -130.734375 C 31.441406 -144.515625 35.925781 -158.007812 40.875 -171.21875 C 45.832031 -184.4375 51.390625 -196.734375 57.546875 -208.109375 C 63.703125 -219.484375 70.597656 -229.40625 78.234375 -237.875 C 85.878906 -246.351562 94.5 -252.828125 104.09375 -257.296875 C 113.6875 -261.765625 124.332031 -263.578125 136.03125 -262.734375 C 149.769531 -261.742188 161.289062 -259 170.59375 -254.5 C 179.90625 -250.007812 187.519531 -243.851562 193.4375 -236.03125 C 199.363281 -228.21875 204.085938 -218.847656 207.609375 -207.921875 C 211.128906 -197.003906 213.875 -184.625 215.84375 -170.78125 C 217.820312 -156.945312 219.546875 -141.738281 221.015625 -125.15625 Z M 111.203125 -105.0625 L 130.734375 -103.65625 C 132.078125 -112.28125 133.015625 -123.210938 133.546875 -136.453125 C 134.085938 -149.691406 134.148438 -165.289062 133.734375 -183.25 C 133.679688 -187.375 133.09375 -190.050781 131.96875 -191.28125 C 130.84375 -192.507812 129.625 -192.445312 128.3125 -191.09375 C 127 -189.738281 125.910156 -187.332031 125.046875 -183.875 C 123.972656 -178.863281 122.78125 -173.195312 121.46875 -166.875 C 120.164062 -160.550781 118.882812 -154.128906 117.625 -147.609375 C 116.363281 -141.085938 115.222656 -134.925781 114.203125 -129.125 C 113.179688 -123.320312 112.394531 -118.285156 111.84375 -114.015625 C 111.300781 -109.753906 111.085938 -106.769531 111.203125 -105.0625 Z M 111.203125 -105.0625 "/></g></g></g><g fill="#000000" fill-opacity="1"><g transform="translate(803.208619, 357.622099)"><g><path d="M 255.015625 51.75 C 252.210938 59.21875 248.175781 65.253906 242.90625 69.859375 C 237.632812 74.460938 231.757812 77.648438 225.28125 79.421875 C 218.800781 81.191406 212.398438 81.46875 206.078125 80.25 C 199.753906 79.039062 194.097656 76.304688 189.109375 72.046875 C 184.128906 67.785156 180.53125 62.070312 178.3125 54.90625 C 176.019531 47.59375 175.351562 40.757812 176.3125 34.40625 C 177.28125 28.050781 179.226562 21.90625 182.15625 15.96875 C 185.09375 10.039062 188.351562 4.101562 191.9375 -1.84375 C 195.53125 -7.800781 198.859375 -14.078125 201.921875 -20.671875 C 204.984375 -27.273438 207.035156 -34.378906 208.078125 -41.984375 C 201.328125 -33.296875 194.878906 -25.226562 188.734375 -17.78125 C 182.585938 -10.332031 176.742188 -3.96875 171.203125 1.3125 C 165.671875 6.59375 160.359375 10.335938 155.265625 12.546875 C 150.171875 14.765625 145.25 14.984375 140.5 13.203125 C 136.425781 11.671875 133.300781 8.722656 131.125 4.359375 C 128.957031 0.00390625 127.453125 -5.265625 126.609375 -11.453125 C 125.765625 -17.648438 125.476562 -24.378906 125.75 -31.640625 C 126.019531 -38.898438 126.585938 -46.171875 127.453125 -53.453125 C 128.316406 -60.742188 129.3125 -67.601562 130.4375 -74.03125 C 124.769531 -64.789062 120.242188 -55.578125 116.859375 -46.390625 C 113.484375 -37.203125 110.65625 -28.453125 108.375 -20.140625 C 106.09375 -11.828125 103.769531 -4.4375 101.40625 2.03125 C 99.039062 8.5 96.097656 13.753906 92.578125 17.796875 C 89.066406 21.835938 84.410156 24.1875 78.609375 24.84375 C 72.804688 25.507812 65.207031 24.082031 55.8125 20.5625 C 47.09375 17.28125 40.675781 12.347656 36.5625 5.765625 C 32.445312 -0.804688 30.207031 -8.773438 29.84375 -18.140625 C 29.488281 -27.503906 30.628906 -38.019531 33.265625 -49.6875 C 35.910156 -61.351562 39.648438 -73.894531 44.484375 -87.3125 C 49.328125 -100.726562 54.976562 -114.84375 61.4375 -129.65625 C 67.894531 -144.46875 74.632812 -159.664062 81.65625 -175.25 C 88.363281 -190.03125 97.597656 -201.21875 109.359375 -208.8125 C 119.628906 -215.550781 129.65625 -219.3125 139.4375 -220.09375 C 149.21875 -220.875 158.023438 -218.628906 165.859375 -213.359375 C 173.703125 -208.097656 179.835938 -199.664062 184.265625 -188.0625 C 190.554688 -171.757812 192.710938 -149.640625 190.734375 -121.703125 C 196.234375 -132.554688 202.382812 -142.320312 209.1875 -151 C 216 -159.6875 223.390625 -166.828125 231.359375 -172.421875 C 239.335938 -178.015625 247.800781 -181.550781 256.75 -183.03125 C 265.695312 -184.519531 275.039062 -183.4375 284.78125 -179.78125 C 293.71875 -176.425781 300.429688 -171.613281 304.921875 -165.34375 C 309.410156 -159.070312 312.132812 -151.71875 313.09375 -143.28125 C 314.0625 -134.851562 313.632812 -125.625 311.8125 -115.59375 C 309.988281 -105.5625 307.285156 -95.082031 303.703125 -84.15625 C 301.609375 -78.226562 298.976562 -70.882812 295.8125 -62.125 C 292.65625 -53.375 289.28125 -43.863281 285.6875 -33.59375 C 282.101562 -23.320312 278.441406 -12.945312 274.703125 -2.46875 C 270.960938 8.007812 267.394531 17.9375 264 27.3125 C 260.601562 36.695312 257.609375 44.84375 255.015625 51.75 Z M 255.015625 51.75 "/></g></g></g><g fill="#000000" fill-opacity="1"><g transform="translate(1005.773786, 428.465982)"><g><path d="M 253.546875 14.9375 C 246.328125 28.726562 238.878906 41.507812 231.203125 53.28125 C 223.523438 65.0625 215.75 75.328125 207.875 84.078125 C 200 92.828125 192.066406 99.640625 184.078125 104.515625 C 176.085938 109.390625 168.144531 111.835938 160.25 111.859375 C 152.351562 111.890625 144.640625 109.066406 137.109375 103.390625 C 125.816406 94.878906 119.890625 85.566406 119.328125 75.453125 C 118.773438 65.347656 122.648438 54.789062 130.953125 43.78125 C 127.429688 40.820312 123.519531 37.875 119.21875 34.9375 C 114.925781 32 110.242188 29.070312 105.171875 26.15625 C 102.253906 32.4375 98.535156 37.769531 94.015625 42.15625 C 89.503906 46.550781 84.5 49.78125 79 51.84375 C 73.5 53.914062 67.828125 54.5625 61.984375 53.78125 C 56.140625 53 50.515625 50.570312 45.109375 46.5 C 37.378906 40.664062 32.070312 34.085938 29.1875 26.765625 C 26.3125 19.453125 25.378906 11.710938 26.390625 3.546875 C 27.398438 -4.617188 29.925781 -13.039062 33.96875 -21.71875 C 38.019531 -30.40625 43.203125 -39.03125 49.515625 -47.59375 C 55.828125 -56.164062 62.800781 -64.460938 70.4375 -72.484375 C 78.070312 -80.503906 85.9375 -87.96875 94.03125 -94.875 C 104.882812 -104.257812 115.976562 -113.15625 127.3125 -121.5625 C 138.65625 -129.96875 150 -137.273438 161.34375 -143.484375 C 172.6875 -149.703125 183.867188 -154.296875 194.890625 -157.265625 C 205.910156 -160.234375 216.660156 -160.984375 227.140625 -159.515625 C 237.617188 -158.054688 247.539062 -153.796875 256.90625 -146.734375 C 267.90625 -138.441406 276.09375 -129.878906 281.46875 -121.046875 C 286.84375 -112.210938 289.894531 -102.90625 290.625 -93.125 C 291.351562 -83.34375 290.226562 -72.910156 287.25 -61.828125 C 284.269531 -50.753906 279.847656 -38.875 273.984375 -26.1875 C 268.128906 -13.5 261.316406 0.207031 253.546875 14.9375 Z M 150.4375 -27.828125 L 166.0625 -16.046875 C 171.882812 -22.554688 178.609375 -31.222656 186.234375 -42.046875 C 193.867188 -52.867188 202.394531 -65.929688 211.8125 -81.234375 C 214.007812 -84.734375 214.96875 -87.304688 214.6875 -88.953125 C 214.40625 -90.597656 213.347656 -91.203125 211.515625 -90.765625 C 209.679688 -90.335938 207.46875 -88.90625 204.875 -86.46875 C 201.238281 -82.851562 197.148438 -78.742188 192.609375 -74.140625 C 188.078125 -69.535156 183.515625 -64.835938 178.921875 -60.046875 C 174.335938 -55.265625 170.035156 -50.710938 166.015625 -46.390625 C 162.003906 -42.078125 158.609375 -38.273438 155.828125 -34.984375 C 153.054688 -31.703125 151.257812 -29.316406 150.4375 -27.828125 Z M 150.4375 -27.828125 "/></g></g></g><g fill="#b370b0" fill-opacity="1"><g transform="translate(307.360398, 689.218401)"><g><path d="M 187.28125 -76.84375 C 187.3125 -60.195312 183.914062 -46.160156 177.09375 -34.734375 C 170.28125 -23.304688 160.726562 -14.695312 148.4375 -8.90625 C 136.144531 -3.125 121.675781 -0.21875 105.03125 -0.1875 C 92.789062 -0.164062 81.644531 -2.285156 71.59375 -6.546875 C 61.539062 -10.816406 52.703125 -16.804688 45.078125 -24.515625 C 37.453125 -32.222656 31.070312 -41.242188 25.9375 -51.578125 C 20.8125 -61.910156 16.925781 -73.132812 14.28125 -85.25 C 11.644531 -97.375 10.378906 -109.976562 10.484375 -123.0625 C 10.453125 -139.226562 11.398438 -154.710938 13.328125 -169.515625 C 15.265625 -184.328125 18.390625 -197.914062 22.703125 -210.28125 C 27.023438 -222.65625 32.742188 -233.425781 39.859375 -242.59375 C 46.972656 -251.757812 55.632812 -258.875 65.84375 -263.9375 C 76.0625 -269.007812 88.066406 -271.5625 101.859375 -271.59375 C 111.960938 -271.613281 121.65625 -269.816406 130.9375 -266.203125 C 140.226562 -262.597656 148.5625 -257.59375 155.9375 -251.1875 C 163.320312 -244.78125 169.21875 -237.421875 173.625 -229.109375 C 178.039062 -220.796875 180.375 -211.941406 180.625 -202.546875 C 180.769531 -195.890625 179.566406 -189.4375 177.015625 -183.1875 C 174.472656 -176.945312 170.851562 -171.710938 166.15625 -167.484375 C 161.46875 -163.253906 155.972656 -160.773438 149.671875 -160.046875 C 144.929688 -159.566406 140.0625 -159.945312 135.0625 -161.1875 C 130.0625 -162.425781 125.390625 -164.378906 121.046875 -167.046875 C 116.703125 -169.710938 113.1875 -172.941406 110.5 -176.734375 C 107.820312 -180.535156 106.476562 -184.753906 106.46875 -189.390625 C 105.988281 -192.597656 105.300781 -194.644531 104.40625 -195.53125 C 103.507812 -196.425781 102.554688 -196.546875 101.546875 -195.890625 C 100.535156 -195.242188 99.675781 -194.203125 98.96875 -192.765625 C 98.269531 -191.335938 97.921875 -189.851562 97.921875 -188.3125 L 94.84375 -115.1875 C 94.863281 -102.46875 95.800781 -93.613281 97.65625 -88.625 C 99.507812 -83.632812 102.988281 -82.210938 108.09375 -84.359375 C 113.195312 -86.503906 120.613281 -91.925781 130.34375 -100.625 C 141.269531 -110.28125 151.007812 -115.769531 159.5625 -117.09375 C 168.125 -118.414062 174.878906 -115.691406 179.828125 -108.921875 C 184.773438 -102.160156 187.257812 -91.46875 187.28125 -76.84375 Z M 187.28125 -76.84375 "/></g></g></g><g fill="#b370b0" fill-opacity="1"><g transform="translate(475.095067, 688.913411)"><g><path d="M 205.59375 -205.09375 C 206.582031 -183.695312 207.179688 -163.25 207.390625 -143.75 C 207.609375 -124.25 207.109375 -106.234375 205.890625 -89.703125 C 204.671875 -73.179688 202.378906 -58.617188 199.015625 -46.015625 C 195.648438 -33.410156 190.914062 -23.207031 184.8125 -15.40625 C 178.707031 -7.601562 170.835938 -2.6875 161.203125 -0.65625 C 150.859375 1.625 142.59375 0.835938 136.40625 -3.015625 C 130.21875 -6.867188 125.988281 -12.984375 123.71875 -21.359375 C 121.445312 -29.734375 120.894531 -39.566406 122.0625 -50.859375 C 122.644531 -56.453125 123.019531 -61.296875 123.1875 -65.390625 C 123.363281 -69.492188 122.707031 -72.703125 121.21875 -75.015625 C 119.726562 -77.335938 116.722656 -78.492188 112.203125 -78.484375 C 108.160156 -78.472656 104.445312 -77.453125 101.0625 -75.421875 C 97.6875 -73.398438 95.046875 -70.664062 93.140625 -67.21875 C 91.242188 -63.769531 90.363281 -59.847656 90.5 -55.453125 C 93.125 -45.109375 94.769531 -36.3125 95.4375 -29.0625 C 96.101562 -21.8125 95.398438 -15.921875 93.328125 -11.390625 C 91.253906 -6.867188 87.484375 -3.535156 82.015625 -1.390625 C 76.554688 0.753906 68.894531 1.835938 59.03125 1.859375 C 51.300781 1.867188 44.875 0.15625 39.75 -3.28125 C 34.632812 -6.71875 30.492188 -11.523438 27.328125 -17.703125 C 24.171875 -23.878906 21.457031 -30.945312 19.1875 -38.90625 C 16.195312 -49.25 14.09375 -60.6875 12.875 -73.21875 C 11.664062 -85.757812 10.957031 -99.28125 10.75 -113.78125 C 10.550781 -128.289062 10.4375 -143.75 10.40625 -160.15625 C 10.382812 -175.132812 10.804688 -188.6875 11.671875 -200.8125 C 12.546875 -212.945312 14.550781 -223.328125 17.6875 -231.953125 C 20.820312 -240.578125 25.769531 -247.179688 32.53125 -251.765625 C 39.300781 -256.359375 48.628906 -258.664062 60.515625 -258.6875 C 69.191406 -259.0625 76.054688 -257.972656 81.109375 -255.421875 C 86.171875 -252.867188 89.863281 -249.363281 92.1875 -244.90625 C 94.519531 -240.457031 95.894531 -235.378906 96.3125 -229.671875 C 96.738281 -223.972656 96.660156 -218.0625 96.078125 -211.9375 C 95.492188 -205.8125 94.789062 -199.863281 93.96875 -194.09375 C 93.15625 -188.332031 92.660156 -183.101562 92.484375 -178.40625 C 92.316406 -173.707031 92.890625 -169.929688 94.203125 -167.078125 C 95.515625 -164.234375 97.984375 -162.722656 101.609375 -162.546875 C 105.242188 -162.367188 110.507812 -163.894531 117.40625 -167.125 C 120.363281 -168.550781 122.015625 -171.878906 122.359375 -177.109375 C 122.710938 -182.347656 122.519531 -189.363281 121.78125 -198.15625 C 121.050781 -206.957031 120.5625 -217.300781 120.3125 -229.1875 C 121.125 -239.769531 125.390625 -247.863281 133.109375 -253.46875 C 140.828125 -259.070312 150.570312 -262.117188 162.34375 -262.609375 C 173.15625 -262.992188 181.625 -260.78125 187.75 -255.96875 C 193.882812 -251.164062 198.296875 -244.394531 200.984375 -235.65625 C 203.679688 -226.925781 205.21875 -216.738281 205.59375 -205.09375 Z M 205.59375 -205.09375 "/></g></g></g><g fill="#b370b0" fill-opacity="1"><g transform="translate(663.159143, 688.571456)"><g><path d="M 207.671875 -138.75 C 210.203125 -123.664062 211.953125 -109.226562 212.921875 -95.4375 C 213.898438 -81.644531 213.894531 -68.984375 212.90625 -57.453125 C 211.914062 -45.921875 209.734375 -35.867188 206.359375 -27.296875 C 202.984375 -18.734375 198.207031 -12.097656 192.03125 -7.390625 C 185.863281 -2.679688 178.144531 -0.320312 168.875 -0.3125 C 154.96875 -0.28125 144.796875 -4.0625 138.359375 -11.65625 C 131.921875 -19.257812 128.691406 -29.835938 128.671875 -43.390625 C 124.148438 -43.617188 119.332031 -43.609375 114.21875 -43.359375 C 109.113281 -43.109375 103.707031 -42.625 98 -41.90625 C 99.4375 -35.25 99.679688 -28.859375 98.734375 -22.734375 C 97.796875 -16.609375 95.785156 -11.101562 92.703125 -6.21875 C 89.628906 -1.34375 85.566406 2.523438 80.515625 5.390625 C 75.472656 8.253906 69.625 9.691406 62.96875 9.703125 C 53.457031 9.710938 45.398438 7.703125 38.796875 3.671875 C 32.191406 -0.347656 26.859375 -5.863281 22.796875 -12.875 C 18.742188 -19.882812 15.726562 -27.992188 13.75 -37.203125 C 11.769531 -46.410156 10.707031 -56.242188 10.5625 -66.703125 C 10.425781 -77.171875 10.972656 -87.816406 12.203125 -98.640625 C 13.441406 -109.460938 15.179688 -119.984375 17.421875 -130.203125 C 20.359375 -144.003906 23.773438 -157.566406 27.671875 -170.890625 C 31.578125 -184.210938 36.132812 -196.671875 41.34375 -208.265625 C 46.5625 -219.867188 52.609375 -230.101562 59.484375 -238.96875 C 66.367188 -247.84375 74.351562 -254.8125 83.4375 -259.875 C 92.519531 -264.945312 102.828125 -267.492188 114.359375 -267.515625 C 127.910156 -267.546875 139.414062 -265.695312 148.875 -261.96875 C 158.332031 -258.238281 166.25 -252.753906 172.625 -245.515625 C 179 -238.273438 184.300781 -229.425781 188.53125 -218.96875 C 192.769531 -208.519531 196.359375 -196.582031 199.296875 -183.15625 C 202.234375 -169.726562 205.023438 -154.925781 207.671875 -138.75 Z M 101.4375 -111.109375 L 120.703125 -111.140625 C 121.398438 -119.703125 121.53125 -130.488281 121.09375 -143.5 C 120.65625 -156.519531 119.585938 -171.828125 117.890625 -189.421875 C 117.523438 -193.460938 116.742188 -196.046875 115.546875 -197.171875 C 114.359375 -198.296875 113.171875 -198.144531 111.984375 -196.71875 C 110.796875 -195.289062 109.910156 -192.851562 109.328125 -189.40625 C 108.617188 -184.414062 107.851562 -178.765625 107.03125 -172.453125 C 106.21875 -166.148438 105.425781 -159.757812 104.65625 -153.28125 C 103.894531 -146.800781 103.222656 -140.675781 102.640625 -134.90625 C 102.054688 -129.144531 101.648438 -124.15625 101.421875 -119.9375 C 101.203125 -115.71875 101.207031 -112.773438 101.4375 -111.109375 Z M 101.4375 -111.109375 "/></g></g></g><g fill="#b370b0" fill-opacity="1"><g transform="translate(857.286335, 688.218477)"><g><path d="M 203.4375 -212.046875 C 203.34375 -203.847656 202.171875 -197.128906 199.921875 -191.890625 C 197.671875 -186.648438 194.195312 -182.628906 189.5 -179.828125 C 184.8125 -177.023438 178.660156 -175.082031 171.046875 -174 C 163.441406 -172.914062 154.234375 -172.363281 143.421875 -172.34375 C 144.140625 -168.070312 145.128906 -162.304688 146.390625 -155.046875 C 147.648438 -147.796875 148.941406 -139.65625 150.265625 -130.625 C 151.585938 -121.59375 152.734375 -112.113281 153.703125 -102.1875 C 154.679688 -92.269531 155.207031 -82.40625 155.28125 -72.59375 C 155.351562 -62.78125 154.769531 -53.472656 153.53125 -44.671875 C 152.300781 -35.878906 150.207031 -28.09375 147.25 -21.3125 C 144.300781 -14.53125 140.242188 -9.234375 135.078125 -5.421875 C 129.910156 -1.609375 123.40625 0.1875 115.5625 -0.03125 C 103.789062 -0.363281 94.304688 -2.21875 87.109375 -5.59375 C 79.910156 -8.96875 74.429688 -13.863281 70.671875 -20.28125 C 66.921875 -26.695312 64.46875 -34.742188 63.3125 -44.421875 C 62.164062 -54.109375 61.847656 -65.488281 62.359375 -78.5625 C 62.878906 -91.644531 63.804688 -106.476562 65.140625 -123.0625 C 66.472656 -139.65625 67.65625 -158.0625 68.6875 -178.28125 C 49.300781 -178.007812 34.726562 -181.632812 24.96875 -189.15625 C 15.21875 -196.6875 10.328125 -207.644531 10.296875 -222.03125 C 10.285156 -228.6875 12.085938 -234.546875 15.703125 -239.609375 C 19.316406 -244.671875 24.238281 -248.988281 30.46875 -252.5625 C 36.707031 -256.144531 43.773438 -259.070312 51.671875 -261.34375 C 59.578125 -263.613281 67.8125 -265.289062 76.375 -266.375 C 84.9375 -267.457031 93.316406 -268.007812 101.515625 -268.03125 C 115.429688 -268.050781 128.515625 -267.0625 140.765625 -265.0625 C 153.015625 -263.070312 163.835938 -259.882812 173.234375 -255.5 C 182.628906 -251.125 190.007812 -245.34375 195.375 -238.15625 C 200.738281 -230.976562 203.425781 -222.273438 203.4375 -212.046875 Z M 203.4375 -212.046875 "/></g></g></g></svg>